<mxfile host="app.diagrams.net" modified="2023-12-29T17:16:17.572Z" agent="Mozilla/5.0 (Macintosh; Intel Mac OS X 10_15_7) AppleWebKit/605.1.15 (KHTML, like Gecko) Version/17.2.1 Safari/605.1.15" etag="GDJJTaktt4tba59mNaYt" version="22.1.16" type="device">
  <diagram name="Page-1" id="b520641d-4fe3-3701-9064-5fc419738815">
    <mxGraphModel dx="1466" dy="987" grid="1" gridSize="10" guides="1" tooltips="1" connect="1" arrows="1" fold="1" page="1" pageScale="1" pageWidth="1100" pageHeight="850" background="none" math="0" shadow="0">
      <root>
        <mxCell id="0" />
        <mxCell id="1" parent="0" />
        <mxCell id="U85wHQI9Ok_MGjJb6Ywa-5" value="&lt;b&gt;ids_loc_prop_time&lt;/b&gt;" style="swimlane;html=1;fontStyle=0;childLayout=stackLayout;horizontal=1;startSize=26;horizontalStack=0;resizeParent=1;resizeLast=0;collapsible=1;marginBottom=0;swimlaneFillColor=#ffffff;align=center;rounded=1;shadow=0;comic=0;labelBackgroundColor=none;strokeWidth=1;fontFamily=Verdana;fontSize=12;fillColor=#e1d5e7;strokeColor=#9673a6;" vertex="1" parent="1">
          <mxGeometry x="370" y="685" width="160" height="80" as="geometry">
            <mxRectangle x="160" y="74" width="70" height="30" as="alternateBounds" />
          </mxGeometry>
        </mxCell>
        <mxCell id="U85wHQI9Ok_MGjJb6Ywa-6" value="&lt;b&gt;Quantity: &lt;/b&gt;32.583" style="text;html=1;strokeColor=#d79b00;fillColor=#ffe6cc;spacingLeft=4;spacingRight=4;whiteSpace=wrap;overflow=hidden;rotatable=0;points=[[0,0.5],[1,0.5]];portConstraint=eastwest;" vertex="1" parent="U85wHQI9Ok_MGjJb6Ywa-5">
          <mxGeometry y="26" width="160" height="26" as="geometry" />
        </mxCell>
        <mxCell id="U85wHQI9Ok_MGjJb6Ywa-66" style="edgeStyle=orthogonalEdgeStyle;rounded=0;orthogonalLoop=1;jettySize=auto;html=1;exitX=0;exitY=0.5;exitDx=0;exitDy=0;entryX=1;entryY=0.5;entryDx=0;entryDy=0;" edge="1" parent="1" source="U85wHQI9Ok_MGjJb6Ywa-12" target="U85wHQI9Ok_MGjJb6Ywa-25">
          <mxGeometry relative="1" as="geometry" />
        </mxCell>
        <mxCell id="U85wHQI9Ok_MGjJb6Ywa-12" value="&lt;b&gt;ids_loc_prop&lt;/b&gt;" style="swimlane;html=1;fontStyle=0;childLayout=stackLayout;horizontal=1;startSize=26;horizontalStack=0;resizeParent=1;resizeLast=0;collapsible=1;marginBottom=0;swimlaneFillColor=#ffffff;align=center;rounded=1;shadow=0;comic=0;labelBackgroundColor=none;strokeWidth=1;fontFamily=Verdana;fontSize=12;fillColor=#e1d5e7;strokeColor=#9673a6;" vertex="1" parent="1">
          <mxGeometry x="570" y="545" width="160" height="80" as="geometry">
            <mxRectangle x="160" y="74" width="70" height="30" as="alternateBounds" />
          </mxGeometry>
        </mxCell>
        <mxCell id="U85wHQI9Ok_MGjJb6Ywa-13" value="&lt;b&gt;Quantity:&lt;/b&gt; 32.586" style="text;html=1;strokeColor=#d79b00;fillColor=#ffe6cc;spacingLeft=4;spacingRight=4;whiteSpace=wrap;overflow=hidden;rotatable=0;points=[[0,0.5],[1,0.5]];portConstraint=eastwest;" vertex="1" parent="U85wHQI9Ok_MGjJb6Ywa-12">
          <mxGeometry y="26" width="160" height="26" as="geometry" />
        </mxCell>
        <mxCell id="U85wHQI9Ok_MGjJb6Ywa-19" value="&lt;b&gt;lab_pedon&lt;/b&gt;" style="swimlane;html=1;fontStyle=0;childLayout=stackLayout;horizontal=1;startSize=26;horizontalStack=0;resizeParent=1;resizeLast=0;collapsible=1;marginBottom=0;swimlaneFillColor=#ffffff;align=center;rounded=1;shadow=0;comic=0;labelBackgroundColor=none;strokeWidth=1;fontFamily=Verdana;fontSize=12;fillColor=#e1d5e7;strokeColor=#9673a6;" vertex="1" parent="1">
          <mxGeometry x="130" y="510" width="200" height="120" as="geometry">
            <mxRectangle x="160" y="74" width="70" height="30" as="alternateBounds" />
          </mxGeometry>
        </mxCell>
        <mxCell id="U85wHQI9Ok_MGjJb6Ywa-20" value="&lt;b&gt;Quantity:&lt;/b&gt;&amp;nbsp;67.384" style="text;html=1;strokeColor=#d79b00;fillColor=#ffe6cc;spacingLeft=4;spacingRight=4;whiteSpace=wrap;overflow=hidden;rotatable=0;points=[[0,0.5],[1,0.5]];portConstraint=eastwest;" vertex="1" parent="U85wHQI9Ok_MGjJb6Ywa-19">
          <mxGeometry y="26" width="200" height="26" as="geometry" />
        </mxCell>
        <mxCell id="U85wHQI9Ok_MGjJb6Ywa-21" value="&lt;b&gt;Features of Importance:&lt;br&gt;-&amp;nbsp;&lt;/b&gt;pedlabsampnum&lt;br&gt;- observation_date" style="text;html=1;strokeColor=#6c8ebf;fillColor=#dae8fc;spacingLeft=4;spacingRight=4;whiteSpace=wrap;overflow=hidden;rotatable=0;points=[[0,0.5],[1,0.5]];portConstraint=eastwest;" vertex="1" parent="U85wHQI9Ok_MGjJb6Ywa-19">
          <mxGeometry y="52" width="200" height="48" as="geometry" />
        </mxCell>
        <mxCell id="U85wHQI9Ok_MGjJb6Ywa-52" style="edgeStyle=orthogonalEdgeStyle;rounded=0;orthogonalLoop=1;jettySize=auto;html=1;exitX=0.5;exitY=1;exitDx=0;exitDy=0;entryX=1;entryY=0.5;entryDx=0;entryDy=0;" edge="1" parent="1" source="U85wHQI9Ok_MGjJb6Ywa-22" target="U85wHQI9Ok_MGjJb6Ywa-48">
          <mxGeometry relative="1" as="geometry" />
        </mxCell>
        <mxCell id="U85wHQI9Ok_MGjJb6Ywa-22" value="&lt;b&gt;lab_chemical_properties&lt;/b&gt;" style="swimlane;html=1;fontStyle=0;childLayout=stackLayout;horizontal=1;startSize=26;horizontalStack=0;resizeParent=1;resizeLast=0;collapsible=1;marginBottom=0;swimlaneFillColor=#ffffff;align=center;rounded=1;shadow=0;comic=0;labelBackgroundColor=none;strokeWidth=1;fontFamily=Verdana;fontSize=12;fillColor=#e1d5e7;strokeColor=#9673a6;" vertex="1" parent="1">
          <mxGeometry x="770" y="85" width="200" height="280" as="geometry">
            <mxRectangle x="160" y="74" width="70" height="30" as="alternateBounds" />
          </mxGeometry>
        </mxCell>
        <mxCell id="U85wHQI9Ok_MGjJb6Ywa-23" value="&lt;b&gt;Quantity:&lt;/b&gt;&amp;nbsp;325.740" style="text;html=1;strokeColor=#d79b00;fillColor=#ffe6cc;spacingLeft=4;spacingRight=4;whiteSpace=wrap;overflow=hidden;rotatable=0;points=[[0,0.5],[1,0.5]];portConstraint=eastwest;" vertex="1" parent="U85wHQI9Ok_MGjJb6Ywa-22">
          <mxGeometry y="26" width="200" height="26" as="geometry" />
        </mxCell>
        <mxCell id="U85wHQI9Ok_MGjJb6Ywa-24" value="&lt;b&gt;Features of Importance:&lt;br&gt;&lt;/b&gt;- total_carbon_ncs&lt;br&gt;- total_nitrogen_ncs&lt;br&gt;- phosphorus_bray1&lt;br&gt;- phosphorus_bray2&lt;br&gt;-&amp;nbsp;k_nh4_ph_7&lt;br&gt;-&amp;nbsp;ca_nh4_ph_7&lt;br&gt;-&amp;nbsp;mg_nh4_ph_7&lt;br&gt;-&amp;nbsp;total_sulfur_ncs&lt;br&gt;-&amp;nbsp;fe_ammoniumoxalate_extractable&lt;br&gt;-&amp;nbsp;iron_sodium_pyro_phosphate&lt;br&gt;-&amp;nbsp;manganese_ammonium_oxalate&lt;br&gt;-&amp;nbsp;manganese_dithionite_citrate&lt;br&gt;-&amp;nbsp;manganese_kcl_extractable" style="text;html=1;strokeColor=#6c8ebf;fillColor=#dae8fc;spacingLeft=4;spacingRight=4;whiteSpace=wrap;overflow=hidden;rotatable=0;points=[[0,0.5],[1,0.5]];portConstraint=eastwest;" vertex="1" parent="U85wHQI9Ok_MGjJb6Ywa-22">
          <mxGeometry y="52" width="200" height="208" as="geometry" />
        </mxCell>
        <mxCell id="U85wHQI9Ok_MGjJb6Ywa-65" style="edgeStyle=orthogonalEdgeStyle;rounded=0;orthogonalLoop=1;jettySize=auto;html=1;exitX=0.5;exitY=1;exitDx=0;exitDy=0;entryX=0.5;entryY=0;entryDx=0;entryDy=0;" edge="1" parent="1" source="U85wHQI9Ok_MGjJb6Ywa-25" target="U85wHQI9Ok_MGjJb6Ywa-5">
          <mxGeometry relative="1" as="geometry" />
        </mxCell>
        <mxCell id="U85wHQI9Ok_MGjJb6Ywa-25" value="3.&lt;br&gt;Merge through (pedon_key,&lt;br&gt;site_key)" style="rhombus;whiteSpace=wrap;html=1;fillColor=#f8cecc;strokeColor=#b85450;" vertex="1" parent="1">
          <mxGeometry x="390" y="525" width="120" height="120" as="geometry" />
        </mxCell>
        <mxCell id="U85wHQI9Ok_MGjJb6Ywa-51" style="edgeStyle=orthogonalEdgeStyle;rounded=0;orthogonalLoop=1;jettySize=auto;html=1;entryX=0.5;entryY=0;entryDx=0;entryDy=0;exitX=0.75;exitY=1;exitDx=0;exitDy=0;" edge="1" parent="1" source="U85wHQI9Ok_MGjJb6Ywa-33" target="U85wHQI9Ok_MGjJb6Ywa-48">
          <mxGeometry relative="1" as="geometry">
            <mxPoint x="610" y="325" as="sourcePoint" />
          </mxGeometry>
        </mxCell>
        <mxCell id="U85wHQI9Ok_MGjJb6Ywa-33" value="&lt;b&gt;lab_major_trace_elements_and_oxides&lt;/b&gt;" style="swimlane;html=1;fontStyle=0;childLayout=stackLayout;horizontal=1;startSize=26;horizontalStack=0;resizeParent=1;resizeLast=0;collapsible=1;marginBottom=0;swimlaneFillColor=#ffffff;align=center;rounded=1;shadow=0;comic=0;labelBackgroundColor=none;strokeWidth=1;fontFamily=Verdana;fontSize=12;fillColor=#e1d5e7;strokeColor=#9673a6;" vertex="1" parent="1">
          <mxGeometry x="450" y="85" width="280" height="240" as="geometry">
            <mxRectangle x="160" y="74" width="70" height="30" as="alternateBounds" />
          </mxGeometry>
        </mxCell>
        <mxCell id="U85wHQI9Ok_MGjJb6Ywa-34" value="&lt;b&gt;Quantity:&lt;/b&gt;&amp;nbsp;34.515" style="text;html=1;strokeColor=#d79b00;fillColor=#ffe6cc;spacingLeft=4;spacingRight=4;whiteSpace=wrap;overflow=hidden;rotatable=0;points=[[0,0.5],[1,0.5]];portConstraint=eastwest;" vertex="1" parent="U85wHQI9Ok_MGjJb6Ywa-33">
          <mxGeometry y="26" width="280" height="26" as="geometry" />
        </mxCell>
        <mxCell id="U85wHQI9Ok_MGjJb6Ywa-35" value="&lt;b&gt;Features of Importance:&lt;br&gt;&lt;/b&gt;- phosphorus_major_element&lt;br&gt;- phosphorus_trace_element&lt;br&gt;-&amp;nbsp;potassium_major_element&lt;br&gt;-&amp;nbsp;calcium_major_element&lt;br&gt;-&amp;nbsp;magnesium_major_element&lt;br&gt;-&amp;nbsp;copper_trace_element&lt;br&gt;-&amp;nbsp;iron_major_element&lt;br&gt;-&amp;nbsp;manganese_major_element&lt;br&gt;-&amp;nbsp;manganese_trace_element&lt;br&gt;-&amp;nbsp;molybdenum_trace_element&lt;br&gt;-&amp;nbsp;zinc_trace_element" style="text;html=1;strokeColor=#6c8ebf;fillColor=#dae8fc;spacingLeft=4;spacingRight=4;whiteSpace=wrap;overflow=hidden;rotatable=0;points=[[0,0.5],[1,0.5]];portConstraint=eastwest;" vertex="1" parent="U85wHQI9Ok_MGjJb6Ywa-33">
          <mxGeometry y="52" width="280" height="178" as="geometry" />
        </mxCell>
        <mxCell id="U85wHQI9Ok_MGjJb6Ywa-36" value="&lt;b&gt;lab_layer&lt;/b&gt;" style="swimlane;html=1;fontStyle=0;childLayout=stackLayout;horizontal=1;startSize=26;horizontalStack=0;resizeParent=1;resizeLast=0;collapsible=1;marginBottom=0;swimlaneFillColor=#ffffff;align=center;rounded=1;shadow=0;comic=0;labelBackgroundColor=none;strokeWidth=1;fontFamily=Verdana;fontSize=12;fillColor=#e1d5e7;strokeColor=#9673a6;" vertex="1" parent="1">
          <mxGeometry x="130" y="245" width="120" height="80" as="geometry">
            <mxRectangle x="160" y="74" width="70" height="30" as="alternateBounds" />
          </mxGeometry>
        </mxCell>
        <mxCell id="U85wHQI9Ok_MGjJb6Ywa-37" value="&lt;b&gt;Quantity:&lt;/b&gt;&amp;nbsp;417.656" style="text;html=1;strokeColor=#d79b00;fillColor=#ffe6cc;spacingLeft=4;spacingRight=4;whiteSpace=wrap;overflow=hidden;rotatable=0;points=[[0,0.5],[1,0.5]];portConstraint=eastwest;" vertex="1" parent="U85wHQI9Ok_MGjJb6Ywa-36">
          <mxGeometry y="26" width="120" height="26" as="geometry" />
        </mxCell>
        <mxCell id="U85wHQI9Ok_MGjJb6Ywa-64" style="edgeStyle=orthogonalEdgeStyle;rounded=0;orthogonalLoop=1;jettySize=auto;html=1;entryX=0.5;entryY=0;entryDx=0;entryDy=0;" edge="1" parent="1" target="U85wHQI9Ok_MGjJb6Ywa-42">
          <mxGeometry relative="1" as="geometry">
            <mxPoint x="370" y="205" as="sourcePoint" />
          </mxGeometry>
        </mxCell>
        <mxCell id="U85wHQI9Ok_MGjJb6Ywa-39" value="&lt;b&gt;lab_site&lt;/b&gt;" style="swimlane;html=1;fontStyle=0;childLayout=stackLayout;horizontal=1;startSize=26;horizontalStack=0;resizeParent=1;resizeLast=0;collapsible=1;marginBottom=0;swimlaneFillColor=#ffffff;align=center;rounded=1;shadow=0;comic=0;labelBackgroundColor=none;strokeWidth=1;fontFamily=Verdana;fontSize=12;fillColor=#e1d5e7;strokeColor=#9673a6;" vertex="1" parent="1">
          <mxGeometry x="130" y="85" width="280" height="120" as="geometry">
            <mxRectangle x="160" y="74" width="70" height="30" as="alternateBounds" />
          </mxGeometry>
        </mxCell>
        <mxCell id="U85wHQI9Ok_MGjJb6Ywa-40" value="&lt;b&gt;Quantity:&lt;/b&gt;&amp;nbsp;129.650" style="text;html=1;strokeColor=#d79b00;fillColor=#ffe6cc;spacingLeft=4;spacingRight=4;whiteSpace=wrap;overflow=hidden;rotatable=0;points=[[0,0.5],[1,0.5]];portConstraint=eastwest;" vertex="1" parent="U85wHQI9Ok_MGjJb6Ywa-39">
          <mxGeometry y="26" width="280" height="26" as="geometry" />
        </mxCell>
        <mxCell id="U85wHQI9Ok_MGjJb6Ywa-41" value="&lt;b&gt;Features of Importance:&lt;/b&gt;&amp;nbsp;latitude_std_decimal_degrees, longitude_std_decimal_degrees" style="text;html=1;strokeColor=#6c8ebf;fillColor=#dae8fc;spacingLeft=4;spacingRight=4;whiteSpace=wrap;overflow=hidden;rotatable=0;points=[[0,0.5],[1,0.5]];portConstraint=eastwest;" vertex="1" parent="U85wHQI9Ok_MGjJb6Ywa-39">
          <mxGeometry y="52" width="280" height="58" as="geometry" />
        </mxCell>
        <mxCell id="U85wHQI9Ok_MGjJb6Ywa-47" style="edgeStyle=orthogonalEdgeStyle;rounded=0;orthogonalLoop=1;jettySize=auto;html=1;exitX=0.5;exitY=1;exitDx=0;exitDy=0;entryX=1;entryY=0.25;entryDx=0;entryDy=0;" edge="1" parent="1" source="U85wHQI9Ok_MGjJb6Ywa-42" target="U85wHQI9Ok_MGjJb6Ywa-45">
          <mxGeometry relative="1" as="geometry" />
        </mxCell>
        <mxCell id="U85wHQI9Ok_MGjJb6Ywa-42" value="&lt;font size=&quot;1&quot;&gt;1.&lt;br&gt;&lt;/font&gt;Merge through&amp;nbsp;&lt;br&gt;site_key" style="rhombus;whiteSpace=wrap;html=1;fillColor=#f8cecc;strokeColor=#b85450;" vertex="1" parent="1">
          <mxGeometry x="310" y="245" width="120" height="120" as="geometry" />
        </mxCell>
        <mxCell id="U85wHQI9Ok_MGjJb6Ywa-43" style="edgeStyle=orthogonalEdgeStyle;rounded=0;orthogonalLoop=1;jettySize=auto;html=1;entryX=0;entryY=0.5;entryDx=0;entryDy=0;exitX=1;exitY=0.75;exitDx=0;exitDy=0;" edge="1" parent="1" source="U85wHQI9Ok_MGjJb6Ywa-36" target="U85wHQI9Ok_MGjJb6Ywa-42">
          <mxGeometry relative="1" as="geometry">
            <mxPoint x="250" y="284" as="sourcePoint" />
          </mxGeometry>
        </mxCell>
        <mxCell id="U85wHQI9Ok_MGjJb6Ywa-45" value="&lt;b&gt;ids_loc&lt;/b&gt;" style="swimlane;html=1;fontStyle=0;childLayout=stackLayout;horizontal=1;startSize=26;horizontalStack=0;resizeParent=1;resizeLast=0;collapsible=1;marginBottom=0;swimlaneFillColor=#ffffff;align=center;rounded=1;shadow=0;comic=0;labelBackgroundColor=none;strokeWidth=1;fontFamily=Verdana;fontSize=12;fillColor=#e1d5e7;strokeColor=#9673a6;" vertex="1" parent="1">
          <mxGeometry x="130" y="395" width="120" height="80" as="geometry">
            <mxRectangle x="160" y="74" width="70" height="30" as="alternateBounds" />
          </mxGeometry>
        </mxCell>
        <mxCell id="U85wHQI9Ok_MGjJb6Ywa-46" value="&lt;b&gt;Quantity:&lt;/b&gt;&amp;nbsp;417.656" style="text;html=1;strokeColor=#d79b00;fillColor=#ffe6cc;spacingLeft=4;spacingRight=4;whiteSpace=wrap;overflow=hidden;rotatable=0;points=[[0,0.5],[1,0.5]];portConstraint=eastwest;" vertex="1" parent="U85wHQI9Ok_MGjJb6Ywa-45">
          <mxGeometry y="26" width="120" height="26" as="geometry" />
        </mxCell>
        <mxCell id="U85wHQI9Ok_MGjJb6Ywa-61" style="edgeStyle=orthogonalEdgeStyle;rounded=0;orthogonalLoop=1;jettySize=auto;html=1;exitX=0.5;exitY=1;exitDx=0;exitDy=0;entryX=0.5;entryY=0;entryDx=0;entryDy=0;" edge="1" parent="1" source="U85wHQI9Ok_MGjJb6Ywa-48" target="U85wHQI9Ok_MGjJb6Ywa-12">
          <mxGeometry relative="1" as="geometry">
            <mxPoint x="610" y="564" as="targetPoint" />
          </mxGeometry>
        </mxCell>
        <mxCell id="U85wHQI9Ok_MGjJb6Ywa-48" value="&amp;nbsp;2.&lt;br&gt;Merge through (labsampnum,&lt;br&gt;layer_key)" style="rhombus;whiteSpace=wrap;html=1;fillColor=#f8cecc;strokeColor=#b85450;" vertex="1" parent="1">
          <mxGeometry x="590" y="375" width="120" height="120" as="geometry" />
        </mxCell>
        <mxCell id="U85wHQI9Ok_MGjJb6Ywa-50" style="edgeStyle=orthogonalEdgeStyle;rounded=0;orthogonalLoop=1;jettySize=auto;html=1;exitX=1;exitY=0.5;exitDx=0;exitDy=0;" edge="1" parent="1" source="U85wHQI9Ok_MGjJb6Ywa-46" target="U85wHQI9Ok_MGjJb6Ywa-48">
          <mxGeometry relative="1" as="geometry" />
        </mxCell>
        <mxCell id="U85wHQI9Ok_MGjJb6Ywa-68" style="edgeStyle=orthogonalEdgeStyle;rounded=0;orthogonalLoop=1;jettySize=auto;html=1;entryX=0;entryY=0.5;entryDx=0;entryDy=0;" edge="1" parent="1" source="U85wHQI9Ok_MGjJb6Ywa-21" target="U85wHQI9Ok_MGjJb6Ywa-25">
          <mxGeometry relative="1" as="geometry">
            <mxPoint x="340" y="581.0000000000002" as="sourcePoint" />
          </mxGeometry>
        </mxCell>
      </root>
    </mxGraphModel>
  </diagram>
</mxfile>
